<svg width="675" height="121" viewBox="0 0 675 121" fill="none" xmlns="http://www.w3.org/2000/svg">
<path d="M53.825 0.16745C54.3475 0.177968 54.8605 0.30662 55.3246 0.5435C55.7887 0.780379 56.1915 1.11917 56.502 1.53377C57.3889 2.66737 58.0294 3.96917 58.3833 5.35787C58.8971 7.22562 59.1991 9.14386 59.2837 11.0773C59.4013 13.4282 59.3189 15.7846 59.0373 18.1218C58.7622 20.5144 58.2925 22.8814 57.6327 25.1997C57.0739 27.2003 56.3186 29.1425 55.3777 30.9986C54.6697 32.4474 53.725 33.7715 52.5815 34.918C51.7958 35.7638 50.7118 36.281 49.5518 36.3638C49.0241 36.3452 48.5078 36.2076 48.0424 35.9617C47.5769 35.7158 47.1748 35.368 46.8667 34.945C45.9855 33.7881 45.352 32.4665 45.0047 31.0605C44.4999 29.1798 44.2061 27.2501 44.1285 25.3061C44.0202 22.9589 44.1101 20.6068 44.3975 18.2743C44.6777 15.8997 45.15 13.5509 45.8101 11.2505C46.3676 9.27016 47.1185 7.34778 48.0522 5.51039C48.7568 4.07559 49.6936 2.76358 50.8259 1.62592C51.6045 0.785645 52.6751 0.265015 53.825 0.16745Z" fill="#400F01"/>
<path d="M61.6756 45.5657C60.7491 46.3208 60.1297 47.3801 59.9312 48.5494C59.8838 49.0926 59.9535 49.6395 60.1356 50.1543C60.3177 50.669 60.6082 51.14 60.9879 51.5362C61.98 52.5909 63.1878 53.4259 64.5314 53.986C66.2919 54.756 68.1397 55.3144 70.0352 55.6494C72.3238 56.0678 74.6466 56.2768 76.9742 56.2738C79.3566 56.2844 81.7352 56.0866 84.0822 55.6828C86.1225 55.3424 88.1202 54.7891 90.0419 54.0321C91.5667 53.455 92.9786 52.6218 94.2152 51.5696C95.1565 50.8092 95.7832 49.7356 95.9773 48.5509C96.0208 47.9993 95.9447 47.4448 95.7542 46.9243C95.5637 46.4039 95.2631 45.9294 94.8724 45.5323C93.8503 44.4718 92.6133 43.6355 91.2419 43.0777C89.4548 42.3135 87.5817 41.762 85.6624 41.435C83.3671 41.0296 81.039 40.8329 78.7073 40.8471C76.3406 40.8487 73.9787 41.0566 71.6492 41.4683C69.6383 41.814 67.6703 42.3689 65.7781 43.1238C64.2786 43.6994 62.8909 44.5254 61.6756 45.5657Z" fill="#400F01"/>
<path d="M3.49515 45.6262C2.59308 46.3712 1.9867 47.4065 1.78296 48.5495C1.7274 49.0771 1.7847 49.6103 1.95117 50.1147C2.11764 50.619 2.38958 51.0833 2.74939 51.4775C3.6837 52.5083 4.83325 53.3273 6.119 53.8781C7.79949 54.6334 9.56797 55.1814 11.3844 55.5098C13.5779 55.9198 15.8057 56.1246 18.0383 56.1214C20.3289 56.1312 22.6157 55.9371 24.8709 55.5415C26.8386 55.2066 28.7643 54.6644 30.6147 53.9242C32.0924 53.3529 33.459 52.5344 34.6544 51.5045C35.5721 50.7532 36.1869 49.7027 36.3875 48.5431C36.439 48.0073 36.3749 47.4669 36.1994 46.9573C36.024 46.4477 35.7411 45.9805 35.3695 45.5865C34.4075 44.5501 33.2309 43.7298 31.9194 43.1811C30.215 42.4347 28.4246 41.8964 26.5879 41.5781C24.3872 41.1809 22.1536 40.9883 19.9163 41.0029C17.6405 41.0047 15.3693 41.2084 13.1304 41.6114C11.1899 41.9513 9.29191 42.4951 7.46877 43.2335C6.01521 43.801 4.67115 44.6103 3.49515 45.6262Z" fill="#400F01"/>
<path d="M48.1885 61.2197C47.719 60.9664 47.1969 60.8223 46.6622 60.7986C45.4994 60.8711 44.4102 61.3846 43.6228 62.2316C42.4737 63.3826 41.5251 64.7128 40.8153 66.1685C39.8646 68.0411 39.1002 70.0001 38.5329 72.0183C37.8609 74.3738 37.3794 76.7782 37.093 79.2089C36.798 81.6052 36.7027 84.0213 36.8079 86.4329C36.8853 88.4363 37.1807 90.4257 37.6889 92.3669C38.0384 93.8212 38.6768 95.1928 39.567 96.4023C39.8723 96.8413 40.2749 97.2061 40.7443 97.4689C41.2137 97.7318 41.7375 97.8859 42.2762 97.9195C43.4458 97.8593 44.5447 97.3487 45.3366 96.4976C46.4981 95.3381 47.4556 93.9957 48.1698 92.5257C49.1279 90.6334 49.8966 88.6535 50.4651 86.614C51.1369 84.24 51.6157 81.8169 51.897 79.3678C52.1857 76.9667 52.2729 74.5463 52.1579 72.1311C52.0751 70.1384 51.7732 68.1605 51.2576 66.2321C50.9046 64.7969 50.2633 63.4463 49.3714 62.2602C49.0627 61.8289 48.6581 61.473 48.1885 61.2197Z" fill="#400F01"/>
<path d="M19.4363 14.625C20.2741 13.8831 21.3716 13.4917 22.4967 13.5335C23.9161 13.5772 25.3107 13.9127 26.5911 14.5186C28.2455 15.2715 29.7975 16.2264 31.2106 17.3608C32.8975 18.7021 34.445 20.2056 35.8301 21.849C37.2494 23.5096 38.502 25.3022 39.5702 27.2015C40.5056 28.8446 41.2435 30.5897 41.7688 32.4014C42.2083 33.8419 42.3722 35.3504 42.252 36.8499C42.1766 38.0176 41.6768 39.1193 40.8443 39.9527C39.991 40.7024 38.8737 41.092 37.7324 41.0378C36.289 40.9791 34.8738 40.6248 33.5768 39.9972C31.9082 39.2209 30.3444 38.2421 28.9218 37.0835C27.2354 35.7262 25.6896 34.2074 24.3071 32.5492C22.9064 30.8889 21.6721 29.0984 20.6218 27.2031C19.7094 25.5761 18.9926 23.8496 18.486 22.0587C18.0643 20.6389 17.9135 19.1542 18.0414 17.6802C18.1234 16.5306 18.618 15.4475 19.4363 14.625Z" fill="#400F01"/>
<path d="M58.5992 56.1483C57.4458 56.0873 56.3142 56.4758 55.4486 57.2302C54.6118 58.0695 54.1107 59.1788 54.0377 60.3537C53.9191 61.8837 54.089 63.4222 54.5386 64.8912C55.08 66.7551 55.8366 68.5516 56.7936 70.2452C57.9001 72.2241 59.1945 74.0951 60.6593 75.8328C62.1076 77.5714 63.7232 79.1676 65.4834 80.599C66.9677 81.819 68.5974 82.8556 70.3364 83.686C71.6815 84.3539 73.1513 84.7421 74.6548 84.8267C75.237 84.8656 75.8212 84.7908 76.374 84.6065C76.9268 84.4222 77.4373 84.132 77.8762 83.7527C78.7335 82.8989 79.2425 81.7641 79.3065 80.5641C79.4169 79.0086 79.234 77.4464 78.7669 75.9567C78.2023 74.0743 77.4209 72.2619 76.4378 70.555C75.3072 68.5709 73.988 66.6973 72.498 64.9595C71.0456 63.2387 69.4273 61.6611 67.6659 60.2488C66.1925 59.0519 64.5756 58.0381 62.8515 57.2302C61.5245 56.5852 60.0769 56.2169 58.5992 56.1483Z" fill="#400F01"/>
<path d="M10.8932 82.9552C10.5781 82.5016 10.3594 81.9897 10.2503 81.4504C10.1412 80.9111 10.144 80.3557 10.2585 79.8175C10.5248 78.2472 11.0539 76.7316 11.8242 75.3325C12.8068 73.4809 13.9653 71.7254 15.284 70.0896C16.8272 68.1546 18.518 66.3387 20.3416 64.6577C22.1389 62.9839 24.0658 61.4509 26.1047 60.0726C27.7959 58.9162 29.6016 57.932 31.4942 57.135C32.8892 56.5165 34.3895 56.1614 35.9172 56.088C36.4464 56.0442 36.9789 56.1196 37.4742 56.3087C37.9695 56.4978 38.4148 56.7956 38.7762 57.1795C39.0983 57.6282 39.3236 58.1374 39.438 58.6755C39.5524 59.2136 39.5536 59.7692 39.4414 60.3077C39.1796 61.8822 38.6514 63.402 37.879 64.8039C36.892 66.6696 35.7265 68.4379 34.3983 70.0848C32.8448 72.0309 31.1421 73.8564 29.3052 75.5453C27.4972 77.2237 25.5584 78.7595 23.5066 80.1384C21.8138 81.291 20.0058 82.2694 18.1108 83.0585C16.7218 83.6684 15.2279 84.0124 13.7087 84.0721C13.1841 84.1101 12.6577 84.0292 12.1697 83.8356C11.6817 83.642 11.245 83.3409 10.8932 82.9552Z" fill="#400F01"/>
<path d="M56.7915 38.4167C56.9094 38.9524 57.1388 39.4582 57.4652 39.9019C57.8358 40.286 58.2897 40.5823 58.793 40.7685C59.2962 40.9548 59.8357 41.0263 60.3709 40.9775C61.9212 40.8961 63.4427 40.5319 64.8584 39.9035C66.7808 39.0916 68.6155 38.0909 70.3348 36.9167C72.4102 35.5169 74.372 33.96 76.2026 32.2601C78.0561 30.5563 79.7744 28.7148 81.3424 26.7519C82.6775 25.0979 83.848 23.3209 84.8376 21.4455C85.6086 20.0426 86.13 18.5197 86.3791 16.943C86.4871 16.4054 86.4791 15.8514 86.3556 15.3171C86.2321 14.7828 85.9959 14.2801 85.6623 13.8418C85.283 13.4631 84.8225 13.173 84.3147 12.9927C83.8069 12.8124 83.2646 12.7464 82.7276 12.7996C81.1681 12.896 79.6396 13.2729 78.2176 13.9117C76.2954 14.7311 74.4609 15.7375 72.7412 16.916C70.6776 18.3145 68.7266 19.8682 66.9056 21.5631C65.0663 23.256 63.3605 25.0846 61.8029 27.0331C60.4771 28.677 59.3137 30.4422 58.3286 32.3046C57.5594 33.7026 57.0361 35.2191 56.7807 36.7896C56.67 37.3268 56.6737 37.8809 56.7915 38.4167Z" fill="#400F01"/>
<path fill-rule="evenodd" clip-rule="evenodd" d="M82.5218 74.4762C81.8756 72.3869 80.9981 70.3748 79.9056 68.4764C78.6521 66.2779 77.1909 64.2023 75.5416 62.2772C74.8908 61.5068 74.2102 60.7622 73.5016 60.0451C74.653 60.1385 75.8084 60.1847 76.9648 60.1836C77.3438 60.1851 77.7227 60.1819 78.1015 60.1739C84.7594 63.9583 89.7197 69.7279 93.277 76.5105C99.5318 88.4366 101.518 103.52 101.518 116.745C101.518 118.954 99.7271 120.745 97.518 120.745C95.3089 120.745 93.518 118.954 93.518 116.745C93.518 104.093 91.5821 90.5031 86.1922 80.2262C85.1103 78.1633 83.8929 76.2361 82.5218 74.4762Z" fill="#400F01"/>
<path d="M178.643 108.52C153.331 108.52 133.518 87.9576 133.518 61.5201C133.518 35.0826 153.331 14.5201 178.643 14.5201C193.893 14.5201 207.018 21.9576 215.018 33.5201L203.893 40.7701C198.206 32.5826 189.143 27.3326 178.643 27.3951C161.081 27.3326 147.268 42.3951 147.268 61.5201C147.268 80.6451 161.081 95.7076 178.643 95.6451C189.143 95.7076 198.206 90.4576 203.893 82.2701L215.018 89.5201C207.018 101.083 193.893 108.52 178.643 108.52Z" fill="#400F01"/>
<path d="M223.773 106.77V12.2701H236.648V51.6451H237.148C240.398 44.7701 247.461 40.5201 256.648 40.5201C271.023 40.5201 279.148 50.8326 279.148 67.6451V106.77H266.273V69.6451C266.211 58.6451 261.398 52.5826 252.898 52.6451C244.398 52.5826 236.648 58.6451 236.648 72.0201V106.77H223.773Z" fill="#400F01"/>
<path d="M290.278 106.77V42.2701H303.153V52.0201H303.653C306.965 45.0826 313.215 40.5201 320.528 40.5201C322.84 40.5201 324.965 40.9576 327.153 41.7701V54.2701C324.653 53.5826 322.153 53.2076 319.903 53.1451C309.278 53.2076 303.153 61.3326 303.153 75.5201V106.77H290.278Z" fill="#400F01"/>
<path d="M362.658 108.52C343.533 108.52 329.158 93.8951 329.158 74.5201C329.158 55.1451 343.533 40.5201 362.658 40.5201C381.658 40.5201 396.033 55.1451 396.033 74.5201C396.033 93.8951 381.658 108.52 362.658 108.52ZM362.658 96.3951C374.658 96.4576 383.158 87.3951 383.158 74.5201C383.158 61.6451 374.658 52.5826 362.658 52.6451C350.533 52.5826 342.033 61.6451 342.033 74.5201C342.033 87.3951 350.533 96.4576 362.658 96.3951Z" fill="#400F01"/>
<path d="M404.038 106.77V42.2701H416.913V51.6451C420.163 44.7701 427.725 40.5201 436.913 40.5201C451.288 40.5201 459.413 50.8326 459.413 67.6451V106.77H446.538V69.6451C446.475 58.6451 441.663 52.5826 433.163 52.6451C424.663 52.5826 416.913 58.6451 416.913 72.0201V106.77H404.038Z" fill="#400F01"/>
<path d="M470.543 106.77V42.2701H483.418V106.77H470.543ZM477.043 30.1451C472.293 30.0826 468.793 26.6451 468.918 22.0201C468.793 17.3326 472.293 13.8326 477.043 13.8951C481.668 13.8326 485.168 17.3326 485.293 22.0201C485.168 26.6451 481.668 30.0826 477.043 30.1451Z" fill="#400F01"/>
<path d="M525.173 108.52C505.923 108.52 491.423 93.8951 491.423 74.5201C491.423 55.1451 505.923 40.5201 525.173 40.5201C537.611 40.5201 547.736 46.6451 553.173 56.6451L541.673 62.0201C538.548 56.0201 532.736 52.5826 525.173 52.6451C512.861 52.5826 504.298 61.6451 504.298 74.5201C504.298 87.3951 512.861 96.4576 525.173 96.3951C532.736 96.4576 538.548 93.0201 541.673 87.0201L553.173 92.3951C547.736 102.395 537.611 108.52 525.173 108.52Z" fill="#400F01"/>
<path d="M577.803 108.52C566.616 108.52 561.178 101.458 561.178 87.0201V12.2701H574.053V86.5201C574.053 93.7076 575.991 96.2701 581.053 96.2701C582.178 96.2701 583.366 96.1451 584.553 96.0201V107.645C582.366 108.208 580.116 108.52 577.803 108.52Z" fill="#400F01"/>
<path d="M622.683 108.52C602.808 108.52 588.558 93.9576 588.558 74.5201C588.558 54.9576 602.621 40.5201 621.433 40.5201C640.246 40.5201 653.308 54.9576 653.308 74.5201C653.308 75.9576 653.246 77.4576 653.058 78.8951H601.808C603.371 89.8951 611.683 97.0201 622.808 97.0201C630.996 97.0201 636.808 93.2076 639.808 86.8951L651.183 91.5201C646.058 101.895 636.121 108.52 622.683 108.52ZM602.308 67.5201H639.683C638.808 58.7701 631.621 52.0201 621.433 52.0201C611.746 52.0201 604.496 58.0826 602.308 67.5201Z" fill="#400F01"/>
<path d="M667.259 107.395C663.197 107.395 660.26 104.437 660.309 100.395C660.26 96.3529 663.197 93.4444 667.259 93.3951C671.322 93.4444 674.259 96.3529 674.308 100.395C674.259 104.437 671.322 107.395 667.259 107.395Z" fill="#400F01"/>
</svg>
